<?xml version="1.0" encoding="UTF-8"?>
<svg width="44px" height="44px" version="1.1" viewBox="0 0 700 700" xmlns="http://www.w3.org/2000/svg">
 <g fill-rule="evenodd">
  <path d="m396.67 52.5h-163.33c-29.398 0-57.586 11.668-78.375 32.457-20.789 20.789-32.457 48.977-32.457 78.375v233.33c0 29.398 11.668 57.586 32.457 78.375 20.789 20.789 48.977 32.457 78.375 32.457h233.33c29.398 0 57.586-11.668 78.375-32.457 20.789-20.789 32.457-48.977 32.457-78.375v-163.33c0-9.6602-7.8398-17.5-17.5-17.5s-17.5 7.8398-17.5 17.5v163.33c0 20.113-7.9805 39.41-22.215 53.621-14.211 14.234-33.508 22.215-53.621 22.215h-233.33c-20.113 0-39.41-7.9805-53.621-22.215-14.234-14.211-22.215-33.508-22.215-53.621v-233.33c0-20.113 7.9805-39.41 22.215-53.621 14.211-14.234 33.508-22.215 53.621-22.215h163.33c9.6602 0 17.5-7.8398 17.5-17.5s-7.8398-17.5-17.5-17.5z"/>
  <path d="m570.94 359.66s-47.691-38.125-82.086-65.637c-26.648-21.352-65.355-18.059-88.035 7.4648-52.594 59.148-157.24 176.89-157.24 176.89-6.418 7.2109-5.7617 18.293 1.4688 24.711 7.2109 6.418 18.293 5.7617 24.711-1.4688 0 0 104.62-117.71 157.22-176.89 10.312-11.598 27.906-13.09 40.016-3.3828l82.062 65.66c7.5586 6.0195 18.574 4.8086 24.617-2.7305 6.0195-7.5586 4.8086-18.574-2.7305-24.617z"/>
  <path d="m373.45 337.05s-61.996-56.352-99.797-90.719c-22.773-20.695-57.051-22.328-81.668-3.8516-27.184 20.371-62.488 46.852-62.488 46.852-7.7227 5.7852-9.2852 16.777-3.5 24.5 5.7852 7.7227 16.777 9.2852 24.5 3.5 0 0 35.305-26.484 62.488-46.852 11.176-8.3984 26.762-7.6758 37.125 1.75l99.773 90.719c7.1641 6.4883 18.246 5.9727 24.734-1.168 6.4883-7.1641 5.9727-18.246-1.168-24.734z"/>
  <path d="m495.83 70v93.332c0 9.6602 7.8398 17.5 17.5 17.5 9.6602 0 17.5-7.8398 17.5-17.5v-93.332c0-9.6602-7.8398-17.5-17.5-17.5-9.6602 0-17.5 7.8398-17.5 17.5z"/>
  <path d="m466.67 134.17h93.332c9.6602 0 17.5-7.8398 17.5-17.5 0-9.6602-7.8398-17.5-17.5-17.5h-93.332c-9.6602 0-17.5 7.8398-17.5 17.5 0 9.6602 7.8398 17.5 17.5 17.5z"/>
  <path d="m326.67 151.67c0 19.328-15.672 35-35 35-19.332 0-35-15.672-35-35 0-19.332 15.668-35 35-35 19.328 0 35 15.668 35 35"/>
 </g>
</svg>
